<svg xmlns="http://www.w3.org/2000/svg" viewBox="0 0 452.32 383.06"><defs><style>.cls-1,.cls-2{fill:#f5f5f5;}.cls-1,.cls-27{opacity:0.5;}.cls-14,.cls-15,.cls-18,.cls-22,.cls-23,.cls-24,.cls-3,.cls-7,.cls-9{fill:none;stroke-linecap:round;stroke-linejoin:round;}.cls-3{stroke:#d6d6d6;stroke-width:0.47px;}.cls-4{fill:#ff92c9;}.cls-5{fill:#fdb6d6;}.cls-6{fill:#ffdeef;}.cls-15,.cls-22,.cls-23,.cls-24,.cls-7{stroke:#262626;}.cls-27,.cls-8{fill:#fff;}.cls-18,.cls-9{stroke:#fff;}.cls-10{fill:#3897e9;}.cls-11{fill:#d6d6d6;}.cls-12{fill:#f7a99c;}.cls-13{fill:#ffc001;}.cls-14{stroke:#3897e9;}.cls-14,.cls-22{stroke-width:0.73px;}.cls-15,.cls-18{stroke-width:0.41px;}.cls-16{fill:#1775af;}.cls-17{fill:#262626;}.cls-19{fill:#4450e4;}.cls-20{fill:#3748c4;}.cls-21{fill:#ff7769;}.cls-23{stroke-width:0.25px;}.cls-24{stroke-width:0.27px;}.cls-25{fill:#ff7129;}.cls-26{fill:#dcf0ff;opacity:0.2;}</style></defs><g id="Layer_2" data-name="Layer 2"><g id="OBJECT"><ellipse class="cls-1" cx="231" cy="352.37" rx="221.32" ry="30.69"/><path class="cls-2" d="M191.18,297.26a80.29,80.29,0,0,0-.83-12.65c-.64-4.32-2.66-18.13-9.94-28.56-11-15.76-23.47-8.73-36.25-25-7.32-9.33-5.26-14.22-13.63-21.69-7.39-6.59-15.32-9-23.77-10.41-21.39-3.52-56.29-.22-56.29-.22,3,33.83,14.32,47.81,24.13,54.34,13.77,9.15,24.36,3.54,36.63,14.51,16,14.27,5.49,30.43,20.39,45.28,0,0,6.53,6.5,57.15,16.12h0Z"/><path class="cls-3" d="M188.77,329s-39.11-66.55-54-79.6-84.3-50.65-84.3-50.65"/><line class="cls-3" x1="100.69" y1="227.09" x2="57.01" y2="229.53"/><line class="cls-3" x1="109.71" y1="232.49" x2="112.61" y2="200.1"/><line class="cls-3" x1="129.58" y1="245.33" x2="91.77" y2="259.3"/><line class="cls-3" x1="145.57" y1="261.93" x2="150.44" y2="237.37"/><line class="cls-3" x1="157.77" y1="279.33" x2="121.15" y2="286.02"/><line class="cls-3" x1="167.33" y1="294" x2="181.11" y2="257.09"/><line class="cls-3" x1="176.02" y1="307.87" x2="133.66" y2="314.12"/><path class="cls-2" d="M167.93,302.47a79.71,79.71,0,0,0-5.61-11.37c-2.23-3.75-9.38-15.73-20.09-22.59-16.19-10.36-25,.9-43.07-9.28-10.33-5.82-10.29-11.13-20.88-14.83-9.35-3.27-17.61-2.48-25.95-.54C31.22,248.79.23,265.18.23,265.18c15.65,30.13,31.5,38.7,43.07,41,16.22,3.2,23.86-6,39.4-.59,20.21,7.08,16.7,26,36.15,34.06,0,0,8.51,3.51,59-6.95h0Z"/><path class="cls-3" d="M177.82,332.68s-61.58-46.56-80.33-52.92S.23,265.18.23,265.18"/><line class="cls-3" x1="57.49" y1="272.21" x2="18.06" y2="291.17"/><line class="cls-3" x1="67.89" y1="273.76" x2="58.19" y2="242.71"/><line class="cls-3" x1="91.15" y1="278.03" x2="61.55" y2="305.39"/><line class="cls-3" x1="112.28" y1="287.26" x2="107.39" y2="262.7"/><line class="cls-3" x1="130.21" y1="298.67" x2="98.92" y2="318.85"/><line class="cls-3" x1="144.64" y1="308.58" x2="143.27" y2="269.2"/><line class="cls-3" x1="157.98" y1="318.07" x2="121.22" y2="340.03"/><polygon class="cls-4" points="310.41 333.19 177.07 333.19 189.91 245.02 297.57 245.02 310.41 333.19"/><rect class="cls-5" x="62.7" y="21.17" width="362.07" height="239.39" rx="15.25"/><rect class="cls-6" x="71.49" y="28.38" width="344.5" height="207.07" rx="15.25"/><path class="cls-5" d="M338.67,339.61H148.81v-9.17a12.84,12.84,0,0,1,12.84-12.85H325.83a12.84,12.84,0,0,1,12.84,12.85Z"/><line class="cls-7" x1="82.72" y1="235.45" x2="398.39" y2="235.45"/><path class="cls-7" d="M157.17,335v-4.81a5.27,5.27,0,0,1,5.27-5.28h142.4"/><line class="cls-7" x1="289.7" y1="267.61" x2="294.75" y2="306.13"/><circle class="cls-8" cx="240.56" cy="248.78" r="7.39"/><path class="cls-9" d="M345.65,42.44h39.21A13.52,13.52,0,0,1,398.39,56v81.47"/><path class="cls-10" d="M375.57,68.24a61.39,61.39,0,0,1,6.72-12.64,24,24,0,0,1,8.65-7.13,25.15,25.15,0,0,1,6.5-2.33,48.46,48.46,0,0,0,6.43-1.8,22.07,22.07,0,0,0,5.61-2.94,13.33,13.33,0,0,0,4.23-5.88q2.82-6.8.21-11.05a16,16,0,0,0-7.75-6.38Q398.83,15,394.36,18t-8,9.57l-17.87-7.42a35.65,35.65,0,0,1,7.34-11.41A28.32,28.32,0,0,1,386,1.91,30,30,0,0,1,398.32,0a40.17,40.17,0,0,1,13.54,3.19q15,6.23,21.09,15.91t.42,23.41a32.45,32.45,0,0,1-4.12,7.39,22.33,22.33,0,0,1-5.21,4.9,28.84,28.84,0,0,1-6.54,3.21c-2.41.84-5.06,1.63-8,2.38a44.05,44.05,0,0,0-6.73,2.32,16.36,16.36,0,0,0-4.6,3A17.22,17.22,0,0,0,395,69.91a51.27,51.27,0,0,0-2.55,5.36ZM363.91,94.75l7.54-18.15,18.7,7.78-7.54,18.14Z"/><path class="cls-2" d="M266.6,95.48V80.66a8.8,8.8,0,0,0-8.8-8.8h-86a8.8,8.8,0,0,0-8.8,8.8V194.21a8.8,8.8,0,0,0,8.8,8.8H309.34a8.8,8.8,0,0,0,8.8-8.8V104.28a8.8,8.8,0,0,0-8.8-8.8Z"/><polygon class="cls-11" points="257.89 116.18 240.56 133.51 223.22 116.18 212.76 126.64 230.1 143.97 212.76 161.3 223.22 171.76 240.56 154.43 257.89 171.76 268.35 161.3 251.01 143.97 268.35 126.64 257.89 116.18"/><polygon class="cls-12" points="52.77 338.75 52.77 327.34 31.75 327.34 31.75 358.72 79.2 359.48 79.2 353.78 52.77 338.75"/><path class="cls-13" d="M80.88,359.48v-2.7a7.55,7.55,0,0,0-3.95-6.63l-20-10.8a31.71,31.71,0,0,1-13.81.88c-5.26-.9-10.29-3.29-12-1.29a2.68,2.68,0,0,0-.52,1.84v16.59a2.1,2.1,0,0,0,2.11,2.11Z"/><line class="cls-14" x1="80.88" y1="357.67" x2="30.61" y2="357.67"/><line class="cls-14" x1="69.8" y1="346.54" x2="66.99" y2="350.26"/><line class="cls-14" x1="67.74" y1="345.37" x2="64.92" y2="349.09"/><line class="cls-14" x1="65.58" y1="344.29" x2="62.77" y2="348.01"/><path class="cls-14" d="M62.41,342.32a44.6,44.6,0,0,1-31.8,0"/><polygon class="cls-12" points="112.67 338.75 112.67 327.34 91.66 327.34 91.66 358.72 139.1 359.48 139.1 353.78 112.67 338.75"/><path class="cls-13" d="M140.78,359.48v-2.7a7.53,7.53,0,0,0-3.95-6.63l-20-10.8a31.66,31.66,0,0,1-13.8.88c-5.26-.9-10.29-3.29-12-1.29a2.63,2.63,0,0,0-.52,1.84v16.59a2.1,2.1,0,0,0,2.1,2.11Z"/><line class="cls-14" x1="140.78" y1="357.67" x2="90.52" y2="357.67"/><line class="cls-14" x1="129.71" y1="346.54" x2="126.89" y2="350.26"/><line class="cls-14" x1="127.65" y1="345.37" x2="124.83" y2="349.09"/><line class="cls-14" x1="125.49" y1="344.29" x2="122.67" y2="348.01"/><path class="cls-14" d="M122.32,342.32a44.6,44.6,0,0,1-31.8,0"/><path class="cls-10" d="M100.59,176.25s17.31,55,20,62.57,5.14,18.25,4.57,27.57-9.51,66.75-9.51,66.75H89.56s-1.84-60.66-2.72-65.42-8.5-31.64-8.5-31.64-2.47,31.45-4.56,39.82S55,334.09,55,334.09H30.61L40.88,176.25Z"/><path class="cls-12" d="M140.31,142.74s8.27-7,10.36-11.59c1.79-3.93,4.29-10.82,5-12.73a.61.61,0,0,1,.71-.38l.49.12A2.85,2.85,0,0,1,159,121.6l-.82,3.43,8.73-5.73a1.55,1.55,0,0,1,1.77,2.55l-5.76,4.2,9.56-4.49a1.56,1.56,0,0,1,2,.64l0,0a1.57,1.57,0,0,1-.59,2.14l.11,0a1.75,1.75,0,0,1,1.14,3.31l-.61.25a1.39,1.39,0,0,1,1.79,1.06h0a2.72,2.72,0,0,1-1.41,3c-2.58,1.34-4.25,1.7-6.7,3.53-1.93,1.45-1.26,2.37-3.32,5-2.52,3.22-4.66,3.31-9,6.5a38,38,0,0,0-6.33,5.9Z"/><path class="cls-15" d="M169.2,120.17a1.24,1.24,0,0,1-.4,1.53c-.83.63-7.33,5.45-7.33,5.45"/><line class="cls-15" x1="173.89" y1="124.36" x2="164.93" y2="128.52"/><line class="cls-15" x1="174.81" y1="127.83" x2="165.81" y2="131.98"/><path class="cls-15" d="M157.47,118.39s1.57,1,1.53,2.1-1.64,8.2-1.64,8.2"/><path class="cls-16" d="M89.56,333.14s-2.35-62.2-2.54-63.81-9-34.53-9-34.53l1.57-14.55s17.89,44,17.89,46.93,2,66,2,66Z"/><line class="cls-15" x1="74.79" y1="272.09" x2="81.15" y2="203.35"/><polygon class="cls-17" points="116.62 327.86 89.36 327.86 89.56 333.14 115.62 333.14 116.62 327.86"/><polygon class="cls-17" points="56.53 329.38 30.92 329.38 30.61 334.09 54.95 334.09 56.53 329.38"/><path class="cls-18" d="M118.21,244.25A65.75,65.75,0,0,1,119.77,278"/><path class="cls-19" d="M147.18,135.35a24.79,24.79,0,0,1-9.44,4.28c-5.88,1-11-2.45-12.36-3.39-3.74-2.55-5.11-5.57-7.58-9.11-7.32-10.47-11.86-17-18.22-20.65-3.29-1.91-8.79-4.06-17.45-3.39-1.94-.7-5-.15-7.12-.15H69.83c-3.4.41-28.46,3.32-32.72-.59a4.71,4.71,0,0,1-1.7-3.06c0-1.26.77-2.56,2.85-4.14,5.07-3.87,14.37-6.75,17.49-7.67l-1.9-14.2H49.67c-4.19,0-19,2.47-27,5.26C11.46,82.45,5.46,85.31,2.5,91.79c-3.71,8.13.24,16.87,1.27,19.14,5.14,11.37,16.54,16,23.43,18.76a59.08,59.08,0,0,0,15.24,3.87l-3.23,51.73,59.45,3.23h8.93c.69-7.9-2.73-32.46-2.29-40.48,7.59,10.56,20.16,15.9,32.1,13.6,13.22-2.54,19.86-13.31,20.94-15.13C153.73,137.41,147.18,135.35,147.18,135.35Z"/><path class="cls-8" d="M72.74,106.92h3.75a0,0,0,0,1,0,0v21.52a3.17,3.17,0,0,1-3.17,3.17h-.57a0,0,0,0,1,0,0V106.92A0,0,0,0,1,72.74,106.92Z"/><path class="cls-20" d="M107.68,185.8c-2.05.38-30.19,5.09-50.08-15.9-16.78-17.72-14.79-40.14-14.44-43.46Q41.59,149.78,40,173.1H40l-.76,12.19,9.32.51v-.07q20.85,1.65,43,2.4,8.11.27,16.06.39Z"/><path class="cls-17" d="M91.92,84.26a39.26,39.26,0,0,0,.56-11.94,9.49,9.49,0,0,0-1.63-4.92,8.64,8.64,0,0,0-5-3.21c-3.6-.72-4.51,1.89-9.63,2.53-4.42.54-5.29-1.21-8.26,0-3.24,1.38-4.84,4.59-5.33,5.56A14.21,14.21,0,0,0,61.27,78,15.12,15.12,0,0,0,62,83a149.25,149.25,0,0,1,3.33,15.51l2.07-.08Z"/><path class="cls-12" d="M74.41,110h0a7,7,0,0,1-7-7l-.06-15.07,14-.05,0,15.07A7,7,0,0,1,74.41,110Z"/><path class="cls-21" d="M81.37,98.73,72.25,94a10.71,10.71,0,0,0,3.86,7,10.36,10.36,0,0,0,5.27,2.11Z"/><path class="cls-12" d="M67,83.26c0-.22-.64-.57-.83-.69a4.57,4.57,0,0,0-1-.47A4.06,4.06,0,0,0,63,82a3.78,3.78,0,0,0-2.87,2.93,4.32,4.32,0,0,0,.41,2.47,6.24,6.24,0,0,0,2.56,2.75,6.88,6.88,0,0,0,3,.89,17.93,17.93,0,0,0,2.34-.12C68,88.36,67.47,85.81,67,83.26Z"/><path class="cls-12" d="M65.06,83.41a18,18,0,0,0,6.5,11.24c1,.78,7.53,5.91,13.52,3.4,7.7-3.21,6.86-15.86,6.8-16.54-.18-2.32-.72-9.13-6.37-12.77A13.56,13.56,0,0,0,66.8,73.06,14.74,14.74,0,0,0,65.06,83.41Z"/><path class="cls-17" d="M87.52,81.52a1.51,1.51,0,1,0,1.25-2A1.67,1.67,0,0,0,87.52,81.52Z"/><path class="cls-17" d="M78.62,82.63a1.51,1.51,0,1,0,1.25-2A1.68,1.68,0,0,0,78.62,82.63Z"/><path class="cls-22" d="M84.83,83l1.36,1.85a.71.71,0,0,1-.2,1l-1.25.77"/><path class="cls-21" d="M75.64,87.28A2,2,0,1,0,77.39,85,2,2,0,0,0,75.64,87.28Z"/><path class="cls-22" d="M66,88.33a3.71,3.71,0,0,0-1.18-2.81,3.63,3.63,0,0,0-2.35-.91"/><path class="cls-22" d="M65,85.81a1.7,1.7,0,0,0-1.44.49,1.65,1.65,0,0,0-.42,1.23"/><path class="cls-17" d="M64.88,82a3.15,3.15,0,0,1,1.75.83,4.58,4.58,0,0,1,1,2,19.3,19.3,0,0,0,10.3-4.5A18.89,18.89,0,0,0,82.19,75a13.78,13.78,0,0,0,3.72,2.39c2.29,1,5.14,1.46,5.52.69a4,4,0,0,0-.16-1.38A9,9,0,0,0,91,75.56a14.19,14.19,0,0,0-1.09-2.38,13.7,13.7,0,0,0-3.43-3.92,12.91,12.91,0,0,0-2.93-1.73,14.22,14.22,0,0,0-11.89.7,15.8,15.8,0,0,0-6.39,7A12.49,12.49,0,0,0,64.4,79a6.14,6.14,0,0,0,.21,2.35A5.07,5.07,0,0,0,64.88,82Z"/><path class="cls-21" d="M90.84,84.09a2,2,0,0,1,1.08.17,28.85,28.85,0,0,1-.39,3.79l-.19,0a2,2,0,1,1-.5-4Z"/><path class="cls-23" d="M76,67.29c-.66-.26-1.63-.61-2.81-1-2.6-.75-3.91-1.12-5.09-1-3.47.45-5.46,5-6.29,6.93a11.77,11.77,0,0,0-1.12,7,10.47,10.47,0,0,0,1.11,3.15"/><path class="cls-23" d="M76,66.87c1.17-.51,2.42-.92,3.55-1.51a30.08,30.08,0,0,1,3.49-1.89,6.53,6.53,0,0,1,4.18-.28,6.85,6.85,0,0,1,3,2,10.53,10.53,0,0,1,2.41,4.28c.85,3.07.09,6.26-.41,9.32"/><path class="cls-8" d="M86.33,90.86a2.2,2.2,0,1,1-2.16-1.81A2,2,0,0,1,86.33,90.86Z"/><path class="cls-12" d="M54.18,75.71l4-2.43S59,69.75,60.11,69s7-3,7-3l.86.8S63.36,71,62.4,72.86,61.26,80,61.26,80L56.74,85.8l-1.1.84Z"/><line class="cls-15" x1="43.16" y1="128.69" x2="41.05" y2="155.72"/><line class="cls-15" x1="104.27" y1="130.9" x2="105.88" y2="160.72"/><path class="cls-18" d="M11.9,88.33A16,16,0,0,0,6,98.89a16.27,16.27,0,0,0,4,12.31"/><path class="cls-18" d="M114.62,150A20.81,20.81,0,0,0,140.84,154"/><path class="cls-2" d="M303.55,173.71l9.27-5,13.76,2.52,6.88-7.34,16.28,4.36,9.06-12.38L375,165.82l-5.5-35-21.34-14.94-49.06,7.72a3.37,3.37,0,0,0-2.8,3.85Z"/><path class="cls-11" d="M353.11,133.43l16.36-2.57-21.34-14.94,2.46,15.68A2.2,2.2,0,0,0,353.11,133.43Z"/><path class="cls-24" d="M348.13,115.92l2.46,15.68a2.2,2.2,0,0,0,2.52,1.83l16.36-2.57"/><path class="cls-2" d="M310.16,219.61a3.37,3.37,0,0,0,3.85,2.81l64.26-10.12a3.37,3.37,0,0,0,2.8-3.85L375,169.72l-16.17-9.91-9.06,12.38-16.28-4.36-6.88,7.34-13.76-2.52-9.27,5Z"/><path class="cls-24" d="M303.56,173.71l9.28-5,13.75,2.52,6.88-7.34,16.28,4.36,9.06-12.38L375,165.82l-5.5-35-21.34-14.94-49.05,7.72a3.36,3.36,0,0,0-2.8,3.85Z"/><path class="cls-24" d="M310.17,219.61a3.37,3.37,0,0,0,3.85,2.81l64.26-10.12a3.37,3.37,0,0,0,2.8-3.85L375,169.72l-16.17-9.91-9.06,12.38-16.28-4.36-6.88,7.34-13.75-2.52-9.28,5Z"/><polygon class="cls-25" points="54.97 64.96 53.35 66.51 39 53.55 43.13 49.61 54.97 64.96"/><polygon class="cls-25" points="58.51 62.3 56.31 62.71 51.39 44.02 57 42.98 58.51 62.3"/><polygon class="cls-25" points="50.87 68.49 50.68 70.72 31.35 70.58 31.82 64.89 50.87 68.49"/><path class="cls-25" d="M281.82,351.92h0a12.31,12.31,0,0,1-.15-17.41l56.69-57.69,17.56,17.27-56.69,57.68A12.31,12.31,0,0,1,281.82,351.92Z"/><circle class="cls-26" cx="382.85" cy="249.12" r="49.79" transform="matrix(1, 0, 0, 1, -0.56, 0.87)"/><path class="cls-27" d="M336.25,266.67a49.15,49.15,0,0,0,7,12.66l89.35-30.9a50.18,50.18,0,0,0-2.3-14.3Z"/><path class="cls-27" d="M333.18,252.41a48.72,48.72,0,0,0,1.28,8.4l93.67-32.4A49.61,49.61,0,0,0,424,221Z"/><path class="cls-25" d="M423.13,208.14a57.46,57.46,0,1,0,.7,81.26A57.46,57.46,0,0,0,423.13,208.14Zm-73.45,74.73a47.32,47.32,0,1,1,66.92-.58A47.32,47.32,0,0,1,349.68,282.87Z"/><line class="cls-9" x1="342.34" y1="299.39" x2="297.51" y2="345.01"/><path class="cls-9" d="M387,195.79a50.46,50.46,0,0,0-55.53,51"/></g></g></svg>